<svg id="Arrow_Forward" data-name="Arrow Forward" xmlns="http://www.w3.org/2000/svg" width="80" height="80" viewBox="0 0 80 80">
  <circle id="Oval" cx="40" cy="40" r="40" fill="#fe9d8b"/>
  <path id="Path" d="M26.925.518A1.413,1.413,0,0,0,25.506.039a1.431,1.431,0,0,0-1.058,1.07,1.449,1.449,0,0,0,.474,1.436L35.145,12.9H1.351a1.444,1.444,0,0,0,0,2.883H35.145L24.905,26.124a1.48,1.48,0,0,0,0,2.027,1.4,1.4,0,0,0,2,0L39.574,15.34a1.418,1.418,0,0,0,0-2.027Z" transform="translate(20 26)" fill="#2c3b57"/>
</svg>
