<?xml version="1.0" encoding="UTF-8"?>
<svg width="28px" height="20px" viewBox="0 0 28 20" version="1.1" xmlns="http://www.w3.org/2000/svg" xmlns:xlink="http://www.w3.org/1999/xlink">
    <!-- Generator: Sketch 59.1 (86144) - https://sketch.com -->
    <title>Path</title>
    <desc>Created with Sketch.</desc>
    <g id="Page-1" stroke="none" stroke-width="1" fill="none" fill-rule="evenodd">
        <g id="Desktop-1920-v4" transform="translate(-1276.000000, -3543.000000)" fill="#136CDC" fill-rule="nonzero">
            <g id="Articles" transform="translate(440.000000, 3525.000000)">
                <g id="nav-arrows" transform="translate(759.000000, 18.000000)">
                    <path d="M95.8475489,0.362260399 C95.6058884,0.0691245646 95.2212152,-0.0606923327 94.8539717,0.0269547764 C94.4867283,0.114601885 94.1999855,0.404660394 94.1133403,0.77615038 C94.0266951,1.14764037 94.1550281,1.53676175 94.444813,1.78121667 L101.601572,9.0292453 L77.945833,9.0292453 C77.4155482,9.05770532 77,9.50095202 77,10.0381232 C77,10.5752944 77.4155482,11.0185411 77.945833,11.0470011 L101.601572,11.0470011 L94.4335911,18.286516 C94.0588141,18.6835345 94.0588141,19.3084538 94.4335911,19.7054723 C94.6194029,19.8940233 94.8717684,20 95.1349591,20 C95.3981498,20 95.6505153,19.8940233 95.8363271,19.7054723 L104.701618,10.7376686 C104.892271,10.5520292 105,10.2958772 105,10.0281905 C105,9.76050382 104.892271,9.50435186 104.701618,9.31871238 L95.8475489,0.362260399 Z" id="Path"></path>
                </g>
            </g>
        </g>
    </g>
</svg>