<?xml version="1.0" encoding="UTF-8"?>
<svg width="1920px" height="803px" viewBox="0 0 1920 803" version="1.1" xmlns="http://www.w3.org/2000/svg" xmlns:xlink="http://www.w3.org/1999/xlink">
    <!-- Generator: Sketch 59.1 (86144) - https://sketch.com -->
    <title>BG shapes</title>
    <desc>Created with Sketch.</desc>
    <g id="Page-1" stroke="none" stroke-width="1" fill="none" fill-rule="evenodd">
        <g id="Desktop-1920-v4-Developers">
            <g id="BG-shapes" transform="translate(-708.000000, -79.000000)">
                <path d="M896.344626,858 C999.008243,837.663685 1183.57867,765.84407 1395.56817,821.999035 C1607.55767,878.154 1699.44317,824.668769 1969.7064,762.334385 C2239.96963,700 2595.54609,795.251055 2967.96963,732 C3340.39316,668.748945 3114.67073,635.947065 3219.96963,668 C3430.21963,732 3378.34463,536.666667 3064.34463,82 L235.344626,36 L235.344626,428 C-33.5720409,508 -72.0303743,613.333333 119.969626,744 C407.969626,940 793.681009,878.336315 896.344626,858 Z" id="Path-Copy-5" fill="#59C5DD" opacity="0.4"></path>
                <path d="M1208.34463,837 C1311.00824,816.663685 1495.57867,744.84407 1707.56817,800.999035 C1919.55767,857.154 2011.44317,803.668769 2281.7064,741.334385 C2551.96963,679 2907.54609,774.251055 3279.96963,711 C3652.39316,647.748945 3426.67073,614.947065 3531.96963,647 C3742.21963,711 3690.34463,515.666667 3376.34463,61 L547.344626,15 L547.344626,407 C278.427959,487 239.969626,592.333333 431.969626,723 C719.969626,919 1105.68101,857.336315 1208.34463,837 Z" id="Path-Copy-2" fill="#FE9D8B" opacity="0.4"></path>
                <path d="M1145,822 C1247.66362,801.663685 1432.23404,729.84407 1644.22354,785.999035 C1856.21304,842.154 1948.09855,788.668769 2218.36177,726.334385 C2488.625,664 2844.20147,759.251055 3216.625,696 C3589.04853,632.748945 3363.3261,599.947065 3468.625,632 C3678.875,696 3627,500.666667 3313,46 L484,0 L484,392 C215.083333,472 176.625,577.333333 368.625,708 C656.625,904 1042.33638,842.336315 1145,822 Z" id="Path" fill="#FBFBFC"></path>
            </g>
        </g>
    </g>
</svg>