<?xml version="1.0" encoding="UTF-8"?>
<svg width="88px" height="55px" viewBox="0 0 88 55" version="1.1" xmlns="http://www.w3.org/2000/svg" xmlns:xlink="http://www.w3.org/1999/xlink">
    <!-- Generator: Sketch 59.1 (86144) - https://sketch.com -->
    <title>Connected</title>
    <desc>Created with Sketch.</desc>
    <g id="Connected" stroke="none" stroke-width="1" fill="none" fill-rule="evenodd">
        <path d="M87.2698949,26.4633028 C87.4827844,41.0233807 75.6674201,53.2622867 60.9780484,53.7898258 C57.0395936,53.8953336 53.3140283,53.1567789 49.9077972,51.7851774 C48.2046816,51.0466227 47.4595686,49.0419743 48.3111263,47.3538493 L48.3111263,47.2483415 C49.0562394,45.87674 50.759355,45.2436931 52.1431364,45.87674 C55.3364781,47.2483415 58.9555986,47.7758806 62.7876087,47.2483415 C72.261189,45.9822478 79.7123196,38.2801776 80.6703221,28.8899825 C81.9476588,16.0180295 71.090297,5.15072504 57.9975961,6.41681877 C48.6304605,7.26088126 40.753551,14.7519358 39.5826591,24.2476388 C39.2633249,26.8853341 39.3697696,29.4175215 40.008438,31.7386934 C40.3277721,32.8992793 39.9019932,34.0598652 39.0504355,34.7984199 C39.0504355,34.7984199 39.0504355,34.7984199 39.0504355,34.7984199 C37.2408752,36.381037 34.3668676,35.5369745 33.834644,33.2158027 C32.9830862,29.7340449 32.7701968,25.9357638 33.5153099,22.0319748 C35.6442043,10.5316234 45.2242294,1.56345948 56.9331489,0.191857935 C73.1127468,-1.70728266 87.0570055,10.742639 87.2698949,26.4633028 Z M30.4284129,54.6338883 C42.1373324,53.2622867 51.7173575,44.2941228 53.8462519,32.7937715 C54.591365,28.8899825 54.3784756,25.0917013 53.5269178,21.5044357 C52.9946942,19.1832639 50.1206866,18.2336936 48.3111263,19.9218185 L48.3111263,19.9218185 C47.4595686,20.6603732 47.1402344,21.8209591 47.3531238,22.9815451 C47.9917922,25.4082247 48.0982369,27.9404122 47.7789027,30.5781074 C46.5015661,39.9683026 38.7311013,47.4593572 29.1510762,48.4089275 C16.0583753,49.5695134 5.20101357,38.8077167 6.47835024,25.9357638 C7.43635275,16.5455686 14.8874834,8.84349842 24.3610637,7.57740469 C28.1930737,7.04986563 31.8121943,7.6829125 35.005536,8.94900623 C36.4957621,9.58205309 38.0924329,8.94900623 38.837546,7.57740469 L38.837546,7.47189688 C39.6891038,5.78377191 39.0504355,3.7791235 37.2408752,3.04056883 C33.3024204,1.45795166 28.8317421,0.719396989 24.1481742,1.24693604 C11.3748075,2.51302977 1.1561141,12.958303 0.0916668675,25.7247481 C-1.29211453,42.6059979 13.1843678,56.6385367 30.4284129,54.6338883 Z" fill="#404A64" fill-rule="nonzero"></path>
    </g>
</svg>