<?xml version="1.0" encoding="UTF-8"?>
<svg width="121px" height="30px" viewBox="0 0 121 30" version="1.1" xmlns="http://www.w3.org/2000/svg" xmlns:xlink="http://www.w3.org/1999/xlink">
    <!-- Generator: Sketch 59.1 (86144) - https://sketch.com -->
    <title>fantom logo white v3</title>
    <desc>Created with Sketch.</desc>
    <defs>
        <rect id="path-1" x="0.708333333" y="23.6979167" width="20.5416667" height="5.46875"></rect>
    </defs>
    <g id="Page-1" stroke="none" stroke-width="1" fill="none" fill-rule="evenodd">
        <g id="mobile-menu" transform="translate(-32.000000, -16.000000)">
            <g id="fantom-logo" transform="translate(30.000000, 16.000000)">
                <g id="fantom-new-logo" stroke-width="1" fill-rule="evenodd" transform="translate(2.812500, 1.041667)">
                    <g id="rounded-copy">
                        <path d="M11.5742781,0.215051753 L18.0869041,4.03811081 C18.5753617,4.32484648 18.5753617,4.78973685 18.0869041,5.07647253 L11.5742781,8.89953158 C11.0858205,9.18626725 10.2938743,9.18626725 9.80541673,8.89953158 L3.29279076,5.07647253 C2.80433318,4.78973685 2.80433318,4.32484648 3.29279076,4.03811081 L9.80541673,0.215051753 C10.2938743,-0.0716839177 11.0858205,-0.0716839177 11.5742781,0.215051753 Z" id="Rectangle" stroke="#426ED5" stroke-width="1.5625"></path>
                        <path d="M11.5742781,9.54409587 L18.0869041,13.3671549 C18.5753617,13.6538906 18.5753617,14.118781 18.0869041,14.4055166 L11.5742781,18.2285757 C11.0858205,18.5153114 10.2938743,18.5153114 9.80541673,18.2285757 L3.29279076,14.4055166 C2.80433318,14.118781 2.80433318,13.6538906 3.29279076,13.3671549 L9.80541673,9.54409587 C10.2938743,9.2573602 11.0858205,9.2573602 11.5742781,9.54409587 Z" id="Rectangle-Copy" stroke="#426ED5" stroke-width="1.5625"></path>
                        <mask id="mask-2" fill="white">
                            <use xlink:href="#path-1"></use>
                        </mask>
                        <g id="MASK"></g>
                        <path d="M11.5742781,19.3020616 L18.0869041,23.1251206 C18.5753617,23.4118563 18.5753617,23.8767467 18.0869041,24.1634823 L11.5742781,27.9865414 C11.0858205,28.2732771 10.2938743,28.2732771 9.80541673,27.9865414 L3.29279076,24.1634823 C2.80433318,23.8767467 2.80433318,23.4118563 3.29279076,23.1251206 L9.80541673,19.3020616 C10.2938743,19.0153259 11.0858205,19.0153259 11.5742781,19.3020616 Z" id="Rectangle-Copy-2" stroke="#426ED5" stroke-width="1.5625" mask="url(#mask-2)"></path>
                        <path d="M19.226428,1.24908916 C20.5015758,2.1069323 21.1284342,2.42862348 21.1284342,4.57323132" id="Path-11" stroke="#426ED5" stroke-width="1.5625"></path>
                        <path d="M0.128032081,23.3066706 C1.40317988,24.1645138 2.03003825,24.486205 2.03003825,26.6308128" id="Path-11-Copy" stroke="#426ED5" stroke-width="1.5625" transform="translate(1.079035, 24.968742) scale(-1, -1) translate(-1.079035, -24.968742) "></path>
                        <line x1="2.88000782" y1="23.5370711" x2="2.88000782" y2="4.65740725" id="Line-2" stroke="#426ED5" stroke-width="1.5625" stroke-linecap="square"></line>
                        <line x1="18.5032473" y1="23.5370711" x2="18.5032473" y2="4.65740725" id="Line-2-Copy" stroke="#426ED5" stroke-width="1.5625" stroke-linecap="square"></line>
                        <line x1="10.6898474" y1="18.1755515" x2="10.6898474" y2="9.38265931" id="Line-2-Copy-2" stroke="#426ED5" stroke-width="1.5625" stroke-linecap="square"></line>
                    </g>
                </g>
                <text id="fantom" font-family="WorkSans-SemiBold, WorkSans" font-size="28.125" font-weight="500" fill="#426ED5">
                    <tspan x="29.4296875" y="24.0416667">fantom</tspan>
                </text>
            </g>
        </g>
    </g>
</svg>