<?xml version="1.0" encoding="UTF-8"?>
<svg width="286px" height="381px" viewBox="0 0 286 381" version="1.1" xmlns="http://www.w3.org/2000/svg" xmlns:xlink="http://www.w3.org/1999/xlink">
    <!-- Generator: Sketch 59.1 (86144) - https://sketch.com -->
    <title>fantom new logo copy 3</title>
    <desc>Created with Sketch.</desc>
    <defs>
        <rect id="path-1" x="0" y="311.299914" width="300.042559" height="71.8384417"></rect>
    </defs>
    <g id="Page-1" stroke="none" stroke-width="1" fill="none" fill-rule="evenodd">
        <g id="Desktop-1920-v4" transform="translate(-606.000000, -2850.000000)">
            <g id="Intro-to-Fantom-Section" transform="translate(165.000000, 2735.000000)">
                <g id="fantom-logo-bold" transform="translate(439.000000, 115.000000)">
                    <g id="rounded-copy" transform="translate(0.000000, 5.587434)">
                        <path d="M158.940429,2.82495686 L253.998182,53.0453189 C261.127669,56.811928 261.127669,62.9188081 253.998182,66.6854172 L158.940429,116.905779 C151.810943,120.672388 140.251761,120.672388 133.122274,116.905779 L38.0645217,66.6854172 C30.9350351,62.9188081 30.9350351,56.811928 38.0645217,53.0453189 L133.122274,2.82495686 C140.251761,-0.941652287 151.810943,-0.941652287 158.940429,2.82495686 Z" id="Rectangle" stroke="#426ED5" stroke-width="9.70350404"></path>
                        <path d="M158.940429,125.748513 L253.998182,175.968875 C261.127669,179.735484 261.127669,185.842364 253.998182,189.608973 L158.940429,239.829335 C151.810943,243.595944 140.251761,243.595944 133.122274,239.829335 L38.0645217,189.608973 C30.9350351,185.842364 30.9350351,179.735484 38.0645217,175.968875 L133.122274,125.748513 C140.251761,121.981903 151.810943,121.981903 158.940429,125.748513 Z" id="Rectangle-Copy" stroke="#426ED5" stroke-width="9.70350404"></path>
                        <mask id="mask-2" fill="white">
                            <use xlink:href="#path-1"></use>
                        </mask>
                        <g id="MASK"></g>
                        <path d="M158.940429,253.461298 L253.998182,303.68166 C261.127669,307.448269 261.127669,313.555149 253.998182,317.321758 L158.940429,367.54212 C151.810943,371.308729 140.251761,371.308729 133.122274,367.54212 L38.0645217,317.321758 C30.9350351,313.555149 30.9350351,307.448269 38.0645217,303.68166 L133.122274,253.461298 C140.251761,249.694689 151.810943,249.694689 158.940429,253.461298 Z" id="Rectangle-Copy-2" stroke="#426ED5" stroke-width="9.70350404" mask="url(#mask-2)"></path>
                        <path d="M254.557384,26.3407619 C273.281946,37.6701219 282.486878,41.9186319 282.486878,70.2420318" id="Path-11" stroke="#426ED5" stroke-width="9.70350404"></path>
                        <path d="M7.18186977,295.335816 C25.9064316,306.665176 35.1113633,310.913686 35.1113633,339.237086" id="Path-11-Copy" stroke="#426ED5" stroke-width="9.70350404" transform="translate(21.146617, 317.286451) scale(-1, -1) translate(-21.146617, -317.286451) "></path>
                        <line x1="146.031352" y1="238.663267" x2="146.031352" y2="122.923556" id="Line-2-Copy-2" stroke="#426ED5" stroke-width="9.70350404" stroke-linecap="square"></line>
                        <line x1="259.345297" y1="309.000001" x2="259.345297" y2="61.2737198" id="Line-2-Copy" stroke="#426ED5" stroke-width="9.70350404" stroke-linecap="square"></line>
                        <line x1="32.7174067" y1="309.000001" x2="32.7174067" y2="61.2737198" id="Line-2" stroke="#426ED5" stroke-width="9.70350404" stroke-linecap="square"></line>
                    </g>
                </g>
            </g>
        </g>
    </g>
</svg>