<svg xmlns="http://www.w3.org/2000/svg" width="114.739" height="141.944" viewBox="0 0 114.739 141.944">
  <g id="Group" transform="translate(113.691 1.194) rotate(180)">
    <path id="Shape" d="M-104.8,138.944h70.2a6.9,6.9,0,0,0,6.89-6.889v-5.13h5.783a6.9,6.9,0,0,0,6.889-6.889v-3.269H-6.89A6.923,6.923,0,0,0,0,109.828V6.89A6.9,6.9,0,0,0-6.89,0h-70.2A6.922,6.922,0,0,0-84.03,6.89v3.269h-8.1a6.922,6.922,0,0,0-6.939,6.889v5.129H-104.8a6.923,6.923,0,0,0-6.94,6.889V132.055A6.922,6.922,0,0,0-104.8,138.944ZM-34.6,24.591v.131h0a4.406,4.406,0,0,1,4.372,3.569,4.529,4.529,0,0,1,.1.905v96.651a1.07,1.07,0,0,0,0,.2v6.135a4.262,4.262,0,0,1-1.3,3.077A4.52,4.52,0,0,1-34.6,136.53h-70.2a4.533,4.533,0,0,1-3.2-1.3,4.424,4.424,0,0,1-1.322-3.179V29.066A4.424,4.424,0,0,1-108,25.887a4.533,4.533,0,0,1,3.2-1.3Zm12.672-12.02a4.409,4.409,0,0,1,4.375,3.57,4.583,4.583,0,0,1,.1.905v98.513a1.257,1.257,0,0,0,0,.2v4.274a4.428,4.428,0,0,1-4.475,4.476h-5.783V29.066A6.9,6.9,0,0,0-34.6,22.177H-96.652v-5.13a4.425,4.425,0,0,1,1.32-3.175,4.53,4.53,0,0,1,3.206-1.3h70.2ZM-6.889,2.414A4.428,4.428,0,0,1-2.414,6.89V109.828a4.531,4.531,0,0,1-1.3,3.206,4.424,4.424,0,0,1-3.175,1.32h-8.147V17.047a6.9,6.9,0,0,0-6.889-6.889H-81.617V6.89A4.425,4.425,0,0,1-80.3,3.713a4.531,4.531,0,0,1,3.206-1.3h70.2ZM-40.228,123.259a1.212,1.212,0,0,0,.994-.52,1.213,1.213,0,0,0,.1-1.208,1.215,1.215,0,0,0-1-.69c-.033,0-.067,0-.1,0s-.068,0-.1,0H-99.083a1.211,1.211,0,0,0-1.043.6,1.207,1.207,0,0,0,0,1.217,1.211,1.211,0,0,0,1.043.6h58.752C-40.3,123.257-40.262,123.259-40.228,123.259Zm0-16.092a1.212,1.212,0,0,0,.994-.52,1.213,1.213,0,0,0,.1-1.208,1.215,1.215,0,0,0-1-.69c-.033,0-.067,0-.1,0s-.067,0-.1,0H-99.083a1.211,1.211,0,0,0-1.043.6,1.207,1.207,0,0,0,0,1.217,1.211,1.211,0,0,0,1.043.6h58.752C-40.3,107.165-40.262,107.167-40.228,107.167Zm0-16.092a1.212,1.212,0,0,0,.994-.52,1.213,1.213,0,0,0,.1-1.208,1.215,1.215,0,0,0-1-.69c-.033,0-.067,0-.1,0s-.068,0-.1,0H-99.083a1.211,1.211,0,0,0-1.043.6,1.207,1.207,0,0,0,0,1.217,1.212,1.212,0,0,0,1.043.6h58.752C-40.3,91.073-40.262,91.075-40.228,91.075Zm0-16.092a1.212,1.212,0,0,0,.994-.52,1.213,1.213,0,0,0,.1-1.208,1.215,1.215,0,0,0-1-.69c-.033,0-.067,0-.1,0s-.068,0-.1,0H-99.083a1.211,1.211,0,0,0-1.043.6,1.21,1.21,0,0,0,0,1.218,1.212,1.212,0,0,0,1.043.6h58.752C-40.3,74.981-40.262,74.982-40.228,74.982Zm0-16.091a1.215,1.215,0,0,0,1-.521,1.213,1.213,0,0,0,.1-1.207,1.211,1.211,0,0,0-1-.69c-.033,0-.067,0-.1,0s-.068,0-.1,0H-99.086a1.21,1.21,0,0,0-1.04.6,1.21,1.21,0,0,0,0,1.218,1.211,1.211,0,0,0,1.043.6h58.752C-40.3,58.89-40.263,58.891-40.23,58.891Zm0-16.092a1.215,1.215,0,0,0,1-.521,1.213,1.213,0,0,0,.1-1.207,1.212,1.212,0,0,0-1-.69c-.033,0-.067,0-.1,0s-.068,0-.1,0H-99.083a1.212,1.212,0,0,0-1.043.6,1.209,1.209,0,0,0,0,1.218,1.211,1.211,0,0,0,1.043.6h58.752C-40.3,42.8-40.263,42.8-40.23,42.8Z" transform="translate(0.452 -0.306) rotate(-180)" fill="#2c3b57" stroke="#2d3b57" stroke-miterlimit="10" stroke-width="3"/>
  </g>
</svg>
