<?xml version="1.0" encoding="UTF-8"?>
<svg width="83px" height="81px" viewBox="0 0 83 81" version="1.1" xmlns="http://www.w3.org/2000/svg" xmlns:xlink="http://www.w3.org/1999/xlink">
    <!-- Generator: Sketch 59.1 (86144) - https://sketch.com -->
    <title>Permissionless</title>
    <desc>Created with Sketch.</desc>
    <g id="Permissionless" stroke="none" stroke-width="1" fill="none" fill-rule="evenodd">
        <path d="M19.5986951,51.3925694 C22.4969408,51.3925694 24.8464332,53.7420617 24.8464332,56.6403074 L24.8464332,71.2143773 C24.8464332,74.112623 22.4969408,76.4621154 19.5986951,76.4621154 L5.24773804,76.4621154 C2.34949235,76.4621154 3.98258865e-13,74.112623 3.97903932e-13,71.2143773 L3.97903932e-13,56.6403074 C3.97548999e-13,53.7420617 2.34949235,51.3925694 5.24773804,51.3925694 L19.5986951,51.3925694 Z M76.9525451,51.3925694 C79.8507908,51.3925694 82.2002831,53.7420617 82.2002831,56.6403074 L82.2002831,71.2143773 C82.2002831,74.112623 79.8507908,76.4621154 76.9525451,76.4621154 L62.601588,76.4621154 C59.7033423,76.4621154 57.3538499,74.112623 57.3538499,71.2143773 L57.3538499,56.6403074 C57.3538499,53.7420617 59.7033423,51.3925694 62.601588,51.3925694 L76.9525451,51.3925694 Z M47.5509325,1.27897692e-13 C50.4491782,1.27365293e-13 52.7986705,2.34949235 52.7986705,5.24773804 L52.7986705,19.821808 C52.7986705,22.7200537 50.4491782,25.069546 47.5509325,25.069546 L33.1999754,25.069546 C30.3017297,25.069546 27.9522373,22.7200537 27.9522373,19.821808 L27.9522373,5.24773804 C27.9522373,2.34949235 30.3017297,1.28430092e-13 33.1999754,1.27897692e-13 L47.5509325,1.27897692e-13 Z M13.8725919,50.9747436 L39.5472395,25.6962847 M66.5016025,50.9747436 L40.8269549,25.6962847 M24.8410939,63.8389686 L57.3538499,63.9273424" stroke="#404A64" stroke-width="4.99784576"></path>
    </g>
</svg>