<svg xmlns="http://www.w3.org/2000/svg" xmlns:xlink="http://www.w3.org/1999/xlink" width="169" height="63" viewBox="0 0 169 63">
    <defs>
        <path id="b" d="M10.26 50.84c-.406 0-.803-.005-1.206-.014a17.02 17.02 0 0 1-2.492-.216 7.88 7.88 0 0 1-2.21-.726 7.206 7.206 0 0 1-1.862-1.347 7.052 7.052 0 0 1-1.36-1.85 7.548 7.548 0 0 1-.724-2.196 16.348 16.348 0 0 1-.222-2.484c-.009-.28-.02-1.21-.02-1.21V10.189s.012-.916.02-1.186c.01-.83.084-1.66.22-2.48.128-.766.372-1.51.725-2.202a7.122 7.122 0 0 1 1.353-1.853 7.419 7.419 0 0 1 1.87-1.354A7.798 7.798 0 0 1 6.557.393a16.884 16.884 0 0 1 2.5-.217L10.26.159h137.025l1.218.017c.83.01 1.658.082 2.477.216.775.13 1.526.375 2.228.726a7.435 7.435 0 0 1 3.22 3.206c.348.688.588 1.425.714 2.185.138.827.216 1.662.232 2.5.004.376.004.779.004 1.18.01.497.01.97.01 1.446v27.73c0 .482 0 .952-.01 1.425 0 .431 0 .826-.006 1.232a16.766 16.766 0 0 1-.228 2.456 7.57 7.57 0 0 1-.72 2.213 7.264 7.264 0 0 1-1.354 1.836 7.215 7.215 0 0 1-1.866 1.355 7.85 7.85 0 0 1-2.224.728c-.824.134-1.657.206-2.492.216-.39.01-.8.015-1.196.015l-1.446.002-135.586-.002z"/>
        <filter id="a" width="114%" height="143.4%" x="-7%" y="-13.8%" filterUnits="objectBoundingBox">
            <feOffset dy="1" in="SourceAlpha" result="shadowOffsetOuter1"/>
            <feGaussianBlur in="shadowOffsetOuter1" result="shadowBlurOuter1" stdDeviation="1.5"/>
            <feColorMatrix in="shadowBlurOuter1" result="shadowMatrixOuter1" values="0 0 0 0 0 0 0 0 0 0 0 0 0 0 0 0 0 0 0.08 0"/>
            <feOffset dy="4" in="SourceAlpha" result="shadowOffsetOuter2"/>
            <feGaussianBlur in="shadowOffsetOuter2" result="shadowBlurOuter2" stdDeviation="3"/>
            <feColorMatrix in="shadowBlurOuter2" result="shadowMatrixOuter2" values="0 0 0 0 0 0 0 0 0 0 0 0 0 0 0 0 0 0 0.11 0"/>
            <feMerge>
                <feMergeNode in="shadowMatrixOuter1"/>
                <feMergeNode in="shadowMatrixOuter2"/>
            </feMerge>
        </filter>
    </defs>
    <g fill="none" fill-rule="nonzero">
        <g transform="translate(6 2)">
            <use fill="#000" filter="url(#a)" xlink:href="#b"/>
            <use fill="#2B3954" xlink:href="#b"/>
        </g>
        <path fill="#FFF" d="M61.403 36.96h-6.311l-1.516 4.447h-2.673l5.978-16.454h2.777l5.978 16.454h-2.719l-1.514-4.447zm-5.658-2.052h5.003l-2.466-7.218h-.069l-2.468 7.218zm22.801.502c0 3.728-2.008 6.123-5.038 6.123a4.098 4.098 0 0 1-3.798-2.099h-.057v5.942h-2.478V29.41h2.399v1.995h.045a4.288 4.288 0 0 1 3.844-2.12c3.064 0 5.083 2.406 5.083 6.124zm-2.547 0c0-2.429-1.263-4.026-3.19-4.026-1.893 0-3.166 1.63-3.166 4.026 0 2.417 1.273 4.036 3.166 4.036 1.927 0 3.19-1.585 3.19-4.036zm15.834 0c0 3.728-2.008 6.123-5.038 6.123a4.098 4.098 0 0 1-3.798-2.099h-.058v5.942h-2.477V29.41h2.398v1.995h.046a4.288 4.288 0 0 1 3.843-2.12c3.064 0 5.084 2.406 5.084 6.124zm-2.547 0c0-2.429-1.263-4.026-3.19-4.026-1.894 0-3.167 1.63-3.167 4.026 0 2.417 1.273 4.036 3.167 4.036 1.927 0 3.19-1.585 3.19-4.036zm11.328 1.413c.184 1.632 1.779 2.703 3.958 2.703 2.089 0 3.591-1.072 3.591-2.543 0-1.277-.906-2.042-3.052-2.566l-2.145-.513c-3.04-.73-4.452-2.143-4.452-4.436 0-2.839 2.49-4.789 6.024-4.789 3.5 0 5.898 1.95 5.978 4.789h-2.501c-.15-1.642-1.516-2.633-3.512-2.633s-3.362 1.003-3.362 2.462c0 1.163.873 1.848 3.007 2.372l1.824.445c3.397.798 4.809 2.155 4.809 4.561 0 3.079-2.468 5.007-6.392 5.007-3.672 0-6.151-1.883-6.312-4.86h2.537zm15.514-10.25v2.838h2.296v1.95h-2.296v6.613c0 1.028.46 1.507 1.469 1.507.273-.005.545-.024.815-.057v1.938a6.846 6.846 0 0 1-1.376.114c-2.444 0-3.397-.912-3.397-3.239v-6.876h-1.756v-1.95h1.756v-2.839h2.49zm3.625 8.837c0-3.775 2.237-6.146 5.726-6.146 3.5 0 5.726 2.371 5.726 6.146 0 3.785-2.215 6.146-5.726 6.146-3.51 0-5.726-2.361-5.726-6.146zm8.927 0c0-2.59-1.194-4.117-3.201-4.117-2.008 0-3.2 1.54-3.2 4.117 0 2.6 1.192 4.116 3.2 4.116 2.007 0 3.201-1.517 3.201-4.116zm4.568-5.999h2.363v2.042h.058a2.877 2.877 0 0 1 2.903-2.167c.286-.001.57.03.85.091v2.304c-.361-.11-.737-.16-1.114-.15a2.505 2.505 0 0 0-1.93.79 2.471 2.471 0 0 0-.652 1.97v7.116h-2.478V29.411zm17.598 8.473c-.334 2.178-2.468 3.672-5.198 3.672-3.512 0-5.692-2.338-5.692-6.09 0-3.762 2.192-6.202 5.588-6.202 3.34 0 5.44 2.28 5.44 5.917v.844h-8.526v.148c-.08.893.23 1.777.852 2.428a3.154 3.154 0 0 0 2.395.97 2.733 2.733 0 0 0 2.788-1.687h2.353zm-8.377-3.58h6.036a2.875 2.875 0 0 0-.811-2.166 2.912 2.912 0 0 0-2.15-.88 3.066 3.066 0 0 0-2.176.887 3.027 3.027 0 0 0-.899 2.159zM55.435 12.569a3.531 3.531 0 0 1 2.807 1.083 3.484 3.484 0 0 1 .936 2.845c0 2.526-1.373 3.978-3.743 3.978H52.56v-7.906h2.874zm-1.638 6.788h1.5a2.51 2.51 0 0 0 1.993-.802c.509-.551.74-1.301.63-2.042a2.482 2.482 0 0 0-.64-2.028 2.516 2.516 0 0 0-1.983-.8h-1.5v5.672zm6.777-1.868a2.821 2.821 0 0 1 1.332-2.671 2.86 2.86 0 0 1 3 0 2.821 2.821 0 0 1 1.331 2.67 2.821 2.821 0 0 1-1.33 2.676 2.86 2.86 0 0 1-3.003 0 2.821 2.821 0 0 1-1.33-2.675zm4.444 0c0-1.294-.584-2.05-1.61-2.05-1.03 0-1.61.756-1.61 2.05 0 1.303.58 2.054 1.61 2.054 1.026 0 1.61-.756 1.61-2.054zm8.746 2.986h-1.229l-1.24-4.395H71.2l-1.236 4.395h-1.218l-1.655-5.967h1.202l1.076 4.553h.088l1.235-4.553h1.136l1.235 4.553h.094l1.07-4.553h1.185l-1.649 5.967zm3.04-5.967h1.141v.948h.089a1.799 1.799 0 0 1 1.792-1.063 1.96 1.96 0 0 1 1.575.613c.405.432.59 1.023.503 1.606v3.862h-1.185v-3.566c0-.959-.42-1.436-1.296-1.436a1.382 1.382 0 0 0-1.066.429c-.276.29-.41.686-.367 1.083v3.49h-1.185v-5.966zm6.988-2.329h1.185v8.296h-1.185v-8.296zm2.832 5.31a2.821 2.821 0 0 1 1.332-2.671 2.86 2.86 0 0 1 3 0 2.821 2.821 0 0 1 1.331 2.67 2.822 2.822 0 0 1-1.33 2.676 2.86 2.86 0 0 1-3.003 0 2.822 2.822 0 0 1-1.33-2.675zm4.444 0c0-1.294-.585-2.05-1.61-2.05-1.03 0-1.61.756-1.61 2.05 0 1.303.58 2.054 1.61 2.054 1.025 0 1.61-.756 1.61-2.054zm2.467 1.298c0-1.074.804-1.693 2.233-1.78l1.626-.094v-.515c0-.63-.42-.986-1.23-.986-.66 0-1.119.241-1.25.663h-1.148c.121-1.025 1.091-1.682 2.453-1.682 1.506 0 2.355.745 2.355 2.005v4.077h-1.141v-.839h-.094a2.024 2.024 0 0 1-1.803.937 1.821 1.821 0 0 1-1.4-.452c-.38-.34-.6-.825-.601-1.334zm3.859-.51v-.498l-1.466.093c-.827.055-1.202.334-1.202.86 0 .537.469.85 1.113.85.382.038.763-.08 1.056-.325.293-.246.473-.6.499-.98zm2.737-.788c0-1.886.975-3.08 2.492-3.08a1.981 1.981 0 0 1 1.841 1.047h.089v-3.277h1.185v8.296h-1.136v-.943h-.094a2.087 2.087 0 0 1-1.885 1.04c-1.527 0-2.492-1.193-2.492-3.083zm1.224 0c0 1.265.6 2.027 1.604 2.027.999 0 1.616-.773 1.616-2.022 0-1.244-.624-2.027-1.616-2.027-.997 0-1.604.767-1.604 2.022zm9.285 0a2.821 2.821 0 0 1 1.332-2.671 2.86 2.86 0 0 1 3 0 2.821 2.821 0 0 1 1.33 2.67 2.821 2.821 0 0 1-1.33 2.676 2.86 2.86 0 0 1-3.002 0 2.821 2.821 0 0 1-1.33-2.675zm4.444 0c0-1.294-.585-2.05-1.61-2.05-1.03 0-1.61.756-1.61 2.05 0 1.303.58 2.054 1.61 2.054 1.025 0 1.61-.756 1.61-2.054zm2.809-2.98h1.14v.947h.089a1.799 1.799 0 0 1 1.791-1.063 1.96 1.96 0 0 1 1.576.613c.405.432.59 1.023.503 1.606v3.862h-1.185v-3.566c0-.959-.42-1.436-1.296-1.436a1.382 1.382 0 0 0-1.066.429c-.276.29-.41.686-.368 1.083v3.49h-1.184v-5.966zm11.794-1.486v1.512h1.3v.992h-1.3v3.068c0 .625.259.899.849.899.15 0 .302-.01.452-.027v.98a3.911 3.911 0 0 1-.645.06c-1.318 0-1.842-.46-1.842-1.61v-3.37h-.953v-.992h.953v-1.512h1.186zm2.92-.844h1.174v3.288h.093a1.85 1.85 0 0 1 1.831-1.069 1.984 1.984 0 0 1 1.56.629c.4.43.586 1.015.508 1.595v3.853h-1.186v-3.562c0-.953-.447-1.436-1.284-1.436a1.408 1.408 0 0 0-1.11.407 1.389 1.389 0 0 0-.402 1.106v3.485h-1.185v-8.296zm12.075 6.685a2.437 2.437 0 0 1-2.602 1.726c-.8.02-1.57-.31-2.104-.902a2.699 2.699 0 0 1-.67-2.178 2.74 2.74 0 0 1 .67-2.186 2.777 2.777 0 0 1 2.099-.931c1.67 0 2.678 1.134 2.678 3.008v.41h-4.24v.067c-.037.442.115.88.42 1.206.304.325.733.508 1.18.503.58.069 1.144-.217 1.428-.723h1.14zm-4.168-1.923h3.032a1.434 1.434 0 0 0-.394-1.098 1.453 1.453 0 0 0-1.084-.448 1.54 1.54 0 0 0-1.105.447 1.521 1.521 0 0 0-.45 1.099zM38.025 27.898a6.549 6.549 0 0 1 3.142-5.501 6.766 6.766 0 0 0-5.321-2.859c-2.24-.234-4.41 1.331-5.55 1.331-1.164 0-2.92-1.308-4.812-1.27a7.093 7.093 0 0 0-5.964 3.615c-2.579 4.437-.655 10.957 1.815 14.544 1.236 1.756 2.68 3.717 4.57 3.648 1.85-.077 2.54-1.172 4.773-1.172 2.211 0 2.86 1.172 4.788 1.127 1.984-.032 3.234-1.763 4.427-3.536a14.488 14.488 0 0 0 2.024-4.098 6.336 6.336 0 0 1-3.892-5.829zM34.383 17.18a6.43 6.43 0 0 0 1.486-4.625 6.624 6.624 0 0 0-4.277 2.2 6.12 6.12 0 0 0-1.525 4.453 5.479 5.479 0 0 0 4.316-2.028z"/>
    </g>
</svg>
