<svg xmlns="http://www.w3.org/2000/svg" xmlns:xlink="http://www.w3.org/1999/xlink" width="80" height="80" viewBox="0 0 80 80">
    <defs>
        <path id="a" d="M38.134 18.815c-1.105.339-2.726.624-4.971.82C33.359 9.532 38.49 2.423 48.842.018c1.657 7.412-4.65 16.766-10.708 18.797zm21.612 12.953c1.14-1.674 2.958-3.545 5.452-5.648-3.973-4.917-8.57-7.893-15.162-7.893-6.308 0-11.617 3.243-15.501 3.243-3.297 0-9.248-2.869-15.056-2.869C7.078 18.601.503 30.735.503 43.367c0 14.04 10.637 36.455 21.417 36.455 4.24 0 8.053-3.207 13.096-3.207 5.22 0 9.407 3.064 14.307 3.064 8.196 0 15.786-13.808 18.174-21.327-8.339-2.548-15.038-16.071-7.75-26.584z"/>
    </defs>
    <g fill="none" fill-rule="evenodd" transform="translate(6)">
        <mask id="b" fill="#fff">
            <use xlink:href="#a"/>
        </mask>
        <g fill="#242A42" mask="url(#b)">
            <path d="M-6 0h80v80H-6z"/>
        </g>
    </g>
</svg>
