<svg xmlns="http://www.w3.org/2000/svg" xmlns:xlink="http://www.w3.org/1999/xlink" width="184" height="63" viewBox="0 0 184 63">
    <defs>
        <rect id="b" width="172.245" height="51" rx="5"/>
        <filter id="a" width="112.8%" height="143.1%" x="-6.4%" y="-13.7%" filterUnits="objectBoundingBox">
            <feOffset dy="1" in="SourceAlpha" result="shadowOffsetOuter1"/>
            <feGaussianBlur in="shadowOffsetOuter1" result="shadowBlurOuter1" stdDeviation="1.5"/>
            <feColorMatrix in="shadowBlurOuter1" result="shadowMatrixOuter1" values="0 0 0 0 0 0 0 0 0 0 0 0 0 0 0 0 0 0 0.08 0"/>
            <feOffset dy="4" in="SourceAlpha" result="shadowOffsetOuter2"/>
            <feGaussianBlur in="shadowOffsetOuter2" result="shadowBlurOuter2" stdDeviation="3"/>
            <feColorMatrix in="shadowBlurOuter2" result="shadowMatrixOuter2" values="0 0 0 0 0 0 0 0 0 0 0 0 0 0 0 0 0 0 0.11 0"/>
            <feMerge>
                <feMergeNode in="shadowMatrixOuter1"/>
                <feMergeNode in="shadowMatrixOuter2"/>
            </feMerge>
        </filter>
        <linearGradient id="c" x1="61.049%" x2="26.47%" y1="4.948%" y2="71.907%">
            <stop offset="0%" stop-color="#00A0FF"/>
            <stop offset="1%" stop-color="#00A1FF"/>
            <stop offset="26%" stop-color="#00BEFF"/>
            <stop offset="51%" stop-color="#00D2FF"/>
            <stop offset="76%" stop-color="#00DFFF"/>
            <stop offset="100%" stop-color="#00E3FF"/>
        </linearGradient>
        <linearGradient id="d" x1="107.685%" x2="-130.64%" y1="50%" y2="50%">
            <stop offset="0%" stop-color="#FFE000"/>
            <stop offset="41%" stop-color="#FFBD00"/>
            <stop offset="78%" stop-color="#FFA500"/>
            <stop offset="100%" stop-color="#FF9C00"/>
        </linearGradient>
        <linearGradient id="e" x1="86.219%" x2="-50.15%" y1="30.938%" y2="135.867%">
            <stop offset="0%" stop-color="#FF3A44"/>
            <stop offset="100%" stop-color="#C31162"/>
        </linearGradient>
        <linearGradient id="f" x1="-18.754%" x2="42.121%" y1="-11.745%" y2="35.116%">
            <stop offset="0%" stop-color="#32A071"/>
            <stop offset="7%" stop-color="#2DA771"/>
            <stop offset="48%" stop-color="#15CF74"/>
            <stop offset="80%" stop-color="#06E775"/>
            <stop offset="100%" stop-color="#00F076"/>
        </linearGradient>
    </defs>
    <g fill="none" fill-rule="nonzero">
        <g transform="translate(6 2)">
            <use fill="#000" filter="url(#a)" xlink:href="#b"/>
            <use fill="#2B3954" xlink:href="#b"/>
        </g>
        <path fill="#FFF" d="M92.94 29.731a5.42 5.42 0 0 0-5.398 5.436 5.42 5.42 0 0 0 5.431 5.402 5.42 5.42 0 0 0 5.414-5.419 5.34 5.34 0 0 0-5.448-5.419zm0 8.709a3.288 3.288 0 1 1-2.64-5.522A3.293 3.293 0 0 1 96 35.15a3.135 3.135 0 0 1-3.062 3.29zM81.06 29.73a5.42 5.42 0 0 0-5.41 5.427 5.42 5.42 0 0 0 5.428 5.41 5.42 5.42 0 0 0 5.418-5.418 5.34 5.34 0 0 0-5.448-5.419h.013zm0 8.709a3.288 3.288 0 1 1-2.657-5.516 3.293 3.293 0 0 1 5.707 2.226 3.135 3.135 0 0 1-3.062 3.29h.013zm-14.149-7.038v2.294h5.512a4.805 4.805 0 0 1-1.276 2.895 5.642 5.642 0 0 1-4.249 1.683 6.122 6.122 0 0 1-6.124-6.12c0-3.38 2.742-6.12 6.124-6.12a5.871 5.871 0 0 1 4.172 1.645l1.62-1.62a8.028 8.028 0 0 0-5.779-2.384 8.435 8.435 0 0 0-7.576 4.113 8.423 8.423 0 0 0 0 8.617 8.435 8.435 0 0 0 7.576 4.113c2.21.1 4.354-.76 5.882-2.359a7.647 7.647 0 0 0 1.99-5.38 7.48 7.48 0 0 0-.127-1.441l-7.745.064zm57.81 1.784a5.103 5.103 0 0 0-4.644-3.455 5.105 5.105 0 0 0-5.103 5.419 5.302 5.302 0 0 0 5.384 5.419c1.813.01 3.51-.89 4.517-2.397l-1.85-1.275a3.1 3.1 0 0 1-2.667 1.504 2.756 2.756 0 0 1-2.628-1.645l7.26-2.996-.268-.574zm-7.4 1.811a2.97 2.97 0 0 1 2.833-3.162 2.105 2.105 0 0 1 2.016 1.147l-4.849 2.015zm-5.894 5.253h2.386V24.312h-2.386V40.25zm-3.904-9.308h-.09a3.829 3.829 0 0 0-2.858-1.275 5.433 5.433 0 0 0-5.172 5.426 5.433 5.433 0 0 0 5.172 5.425 3.701 3.701 0 0 0 2.858-1.275h.077v.777c0 2.079-1.11 3.188-2.896 3.188a2.998 2.998 0 0 1-2.73-1.925l-2.08.867a5.168 5.168 0 0 0 4.81 3.2c2.794 0 5.103-1.645 5.103-5.648V30.05h-2.194v.892zm-2.73 7.498a3.303 3.303 0 0 1 0-6.58 3.063 3.063 0 0 1 2.896 3.29 3.033 3.033 0 0 1-2.91 3.29h.013zm31.105-14.127h-5.703V40.25h2.386v-6.044h3.33a4.964 4.964 0 0 0 4.594-2.365 4.957 4.957 0 0 0 0-5.163 4.964 4.964 0 0 0-4.594-2.366h-.013zm0 7.65h-3.33V26.53h3.381a2.736 2.736 0 1 1 0 5.47l-.05-.039zm14.711-2.296a4.466 4.466 0 0 0-4.248 2.436l2.118.88a2.259 2.259 0 0 1 2.169-1.173 2.298 2.298 0 0 1 2.552 2.052v.166a5.272 5.272 0 0 0-2.488-.612c-2.284 0-4.594 1.275-4.594 3.583a3.684 3.684 0 0 0 3.956 3.506 3.356 3.356 0 0 0 3.062-1.53h.076v1.275h2.297v-6.133c0-2.792-2.118-4.411-4.836-4.411l-.064-.038zm-.293 8.734c-.778 0-1.863-.395-1.863-1.351 0-1.275 1.353-1.696 2.552-1.696a4.238 4.238 0 0 1 2.169.535 2.883 2.883 0 0 1-2.794 2.55l-.064-.038zm13.563-8.351l-2.73 6.91h-.077l-2.833-6.91h-2.551l4.248 9.665-2.424 5.367H160l6.533-15.032h-2.654zm-21.448 10.2h2.386V24.312h-2.386V40.25z"/>
        <path fill="#FFF" stroke="#FFF" stroke-width=".2" d="M66.503 15.056a3.454 3.454 0 0 1-.957 2.55 3.714 3.714 0 0 1-2.807 1.135 4.014 4.014 0 1 1-2.82-6.847 3.829 3.829 0 0 1 2.82-1.148 3.958 3.958 0 0 1 1.57.32c.46.185.872.478 1.199.853l-.677.676a2.553 2.553 0 0 0-2.092-.905 2.961 2.961 0 0 0-2.973 3.06 3.013 3.013 0 0 0 5.104 2.206c.392-.425.619-.978.638-1.556h-2.77v-.918h3.714c.034.19.05.382.05.574zm5.843-3.188h-3.445v2.423h3.14v.918H68.9v2.423h3.445v.943h-4.465v-7.65h4.465v.944zm4.185 6.707h-.982v-6.707h-2.144v-.943h5.32v.943h-2.194v6.707zm5.946 0v-7.65h.982v7.65h-.982zm5.346 0h-.983v-6.707h-2.143v-.943h5.257v.943h-2.131v6.707zm12.095-.994a3.983 3.983 0 0 1-5.614 0 4.129 4.129 0 0 1 0-5.674 3.957 3.957 0 0 1 5.614 0 4.116 4.116 0 0 1 0 5.674zm-4.886-.638a2.949 2.949 0 0 0 4.16 0 3.262 3.262 0 0 0 0-4.386 2.949 2.949 0 0 0-4.16 0 3.262 3.262 0 0 0 0 4.386zm7.4 1.632v-7.65h1.2l3.725 5.954v-5.954h.982v7.65h-1.02l-3.892-6.235v6.235h-.995z"/>
        <path fill="url(#c)" d="M1.837.689a2.549 2.549 0 0 0-.587 1.785v28.203a2.549 2.549 0 0 0 .587 1.785l.09.089 15.808-15.785v-.37L1.927.6l-.09.09z" transform="translate(17.483 10.925)"/>
        <path fill="url(#d)" d="M22.966 22.032l-5.231-5.266v-.37l5.231-5.278.115.064 6.264 3.557c1.787 1.007 1.787 2.665 0 3.685l-6.239 3.544-.14.064z" transform="translate(17.483 10.925)"/>
        <path fill="url(#e)" d="M23.12 21.956l-5.385-5.381L1.837 32.462a2.08 2.08 0 0 0 2.654.076l18.64-10.582" transform="translate(17.483 10.925)"/>
        <path fill="url(#f)" d="M23.12 11.194L4.477.612a2.08 2.08 0 0 0-2.653.077l15.91 15.886 5.384-5.38z" transform="translate(17.483 10.925)"/>
        <path fill="#000" d="M40.45 32.766L21.96 43.284a2.132 2.132 0 0 1-2.551 0l-.09.09.09.089a2.12 2.12 0 0 0 2.551 0L40.602 32.88l-.153-.114z" opacity=".2"/>
        <path fill="#000" d="M19.32 43.208a2.549 2.549 0 0 1-.587-1.785v.191a2.549 2.549 0 0 0 .587 1.785l.09-.089-.09-.102zm27.509-14.05l-6.38 3.608.115.114 6.265-3.544a2.231 2.231 0 0 0 1.275-1.836 2.372 2.372 0 0 1-1.275 1.657z" opacity=".12"/>
        <path fill="#FFF" d="M21.961 11.716L46.83 25.843c.659.325 1.13.937 1.275 1.657a2.231 2.231 0 0 0-1.275-1.836L21.96 11.537c-1.786-1.007-3.24-.166-3.24 1.874v.192c.038-2.053 1.467-2.895 3.24-1.887z" opacity=".25"/>
    </g>
</svg>
