<?xml version="1.0" encoding="UTF-8"?>
<svg width="88px" height="56px" viewBox="0 0 88 56" version="1.1" xmlns="http://www.w3.org/2000/svg" xmlns:xlink="http://www.w3.org/1999/xlink">
    <!-- Generator: Sketch 59.1 (86144) - https://sketch.com -->
    <title>Connected</title>
    <desc>Created with Sketch.</desc>
    <g id="Page-1" stroke="none" stroke-width="1" fill="none" fill-rule="evenodd">
        <g id="Desktop-1920-v4" transform="translate(-547.000000, -2479.000000)" fill="#404A64" fill-rule="nonzero">
            <g id="Connected" transform="translate(395.000000, 2153.000000)">
                <path d="M239.633531,353.281485 C239.846421,367.841563 228.031056,380.080469 213.341685,380.608008 C209.40323,380.713515 205.677665,379.974961 202.271434,378.603359 C200.568318,377.864805 199.823205,375.860156 200.674763,374.172031 L200.674763,374.066523 C201.419876,372.694922 203.122991,372.061875 204.506773,372.694922 C207.700114,374.066523 211.319235,374.594062 215.151245,374.066523 C224.624825,372.80043 232.075956,365.098359 233.033958,355.708164 C234.311295,342.836211 223.453933,331.968907 210.361232,333.235001 C200.994097,334.079063 193.117187,341.570118 191.946295,351.065821 C191.626961,353.703516 191.733406,356.235703 192.372074,358.556875 C192.691408,359.717461 192.26563,360.878047 191.414072,361.616602 C191.414072,361.616602 191.414072,361.616602 191.414072,361.616602 C189.604512,363.199219 186.730504,362.355156 186.19828,360.033985 C185.346723,356.552227 185.133833,352.753946 185.878946,348.850157 C188.007841,337.349805 197.587866,328.381641 209.296785,327.01004 C225.476383,325.110899 239.420642,337.560821 239.633531,353.281485 Z M182.792049,381.45207 C194.500969,380.080469 204.080994,371.112305 206.209888,359.611953 C206.955001,355.708164 206.742112,351.909883 205.890554,348.322618 C205.358331,346.001446 202.484323,345.051875 200.674763,346.74 L200.674763,346.74 C199.823205,347.478555 199.503871,348.639141 199.71676,349.799727 C200.355429,352.226407 200.461873,354.758594 200.142539,357.396289 C198.865202,366.786484 191.094738,374.277539 181.514713,375.227109 C168.422012,376.387695 157.56465,365.625898 158.841987,352.753946 C159.799989,343.36375 167.25112,335.66168 176.7247,334.395587 C180.55671,333.868047 184.175831,334.501094 187.369172,335.767188 C188.859398,336.400235 190.456069,335.767188 191.201182,334.395587 L191.201182,334.290079 C192.05274,332.601954 191.414072,330.597305 189.604512,329.858751 C185.666057,328.276133 181.195378,327.537579 176.511811,328.065118 C163.738444,329.331212 153.51975,339.776485 152.455303,352.54293 C151.071522,369.42418 165.548004,383.456719 182.792049,381.45207 Z"></path>
            </g>
        </g>
    </g>
</svg>