<?xml version="1.0" encoding="UTF-8"?>
<svg width="94px" height="70px" viewBox="0 0 94 70" version="1.1" xmlns="http://www.w3.org/2000/svg" xmlns:xlink="http://www.w3.org/1999/xlink">
    <!-- Generator: Sketch 59.1 (86144) - https://sketch.com -->
    <title>fast</title>
    <desc>Created with Sketch.</desc>
    <g id="Page-1" stroke="none" stroke-width="1" fill="none" fill-rule="evenodd">
        <g id="Desktop-1920-v4" transform="translate(-1376.000000, -2022.000000)">
            <g id="Fast" transform="translate(1227.000000, 1704.000000)">
                <g id="fast" transform="translate(152.363636, 321.272727)">
                    <path d="M43.6363636,-2.27373675e-13 C67.7360618,-2.27373675e-13 87.2727273,19.5366655 87.2727273,43.6363636 C87.2727273,50.5345059 85.6720952,57.0588004 82.8219778,62.8581005 L4.45074943,62.8581005 C1.6006321,57.0588004 0,50.5345059 0,43.6363636 C0,19.5366655 19.5366655,-2.27373675e-13 43.6363636,-2.27373675e-13 Z" id="Combined-Shape" stroke="#404A64" stroke-width="6.27705628"></path>
                    <rect id="Rectangle" fill="#404A64" x="2.5974026" y="60.7792208" width="81.8181818" height="4.15584416" rx="2.07792208"></rect>
                    <path d="M69.1104792,22.3273114 L69.556299,22.7275734 C70.5236491,23.5960711 70.6037847,25.0843198 69.735287,26.0516698 C69.7337837,26.0533443 69.7322779,26.0550166 69.7307698,26.0566868 L50.332321,47.5389616 C51.2071211,48.9325941 51.7127755,50.5800149 51.7127755,52.3451562 C51.7127755,54.1578663 51.1795001,55.8464255 50.2607945,57.2634663 L34.9584745,57.2634663 C34.0397689,55.8464255 33.5064935,54.1578663 33.5064935,52.3451562 C33.5064935,47.3338709 37.5821086,43.2714214 42.6096345,43.2714214 C43.9326677,43.2714214 45.189779,43.5527545 46.3240414,44.0586774 L65.7909001,22.5012824 C66.6604022,21.5383833 68.1450903,21.4605744 69.1104792,22.3273114 Z" id="Combined-Shape" fill="#404A64"></path>
                </g>
            </g>
        </g>
    </g>
</svg>