<?xml version="1.0" encoding="UTF-8"?>
<svg width="88px" height="82px" viewBox="0 0 88 82" version="1.1" xmlns="http://www.w3.org/2000/svg" xmlns:xlink="http://www.w3.org/1999/xlink">
    <!-- Generator: Sketch 59.1 (86144) - https://sketch.com -->
    <title>Permissionless</title>
    <desc>Created with Sketch.</desc>
    <g id="Page-1" stroke="none" stroke-width="1" fill="none" fill-rule="evenodd">
        <g id="Desktop-1920-v4" transform="translate(-962.000000, -2468.000000)" stroke="#404A64" stroke-width="4.99784576">
            <g id="Permissionless" transform="translate(811.000000, 2153.000000)">
                <path d="M173.876285,369.105318 C176.774531,369.105318 179.124023,371.45481 179.124023,374.353056 L179.124023,388.927126 C179.124023,391.825371 176.774531,394.174864 173.876285,394.174864 L159.525328,394.174864 C156.627082,394.174864 154.27759,391.825371 154.27759,388.927126 L154.27759,374.353056 C154.27759,371.45481 156.627082,369.105318 159.525328,369.105318 L173.876285,369.105318 Z M231.230135,369.105318 C234.12838,369.105318 236.477873,371.45481 236.477873,374.353056 L236.477873,388.927126 C236.477873,391.825371 234.12838,394.174864 231.230135,394.174864 L216.879178,394.174864 C213.980932,394.174864 211.63144,391.825371 211.63144,388.927126 L211.63144,374.353056 C211.63144,371.45481 213.980932,369.105318 216.879178,369.105318 L231.230135,369.105318 Z M201.828522,317.712748 C204.726768,317.712748 207.07626,320.062241 207.07626,322.960486 L207.07626,337.534556 C207.07626,340.432802 204.726768,342.782294 201.828522,342.782294 L187.477565,342.782294 C184.579319,342.782294 182.229827,340.432802 182.229827,337.534556 L182.229827,322.960486 C182.229827,320.062241 184.579319,317.712748 187.477565,317.712748 L201.828522,317.712748 Z M168.150182,368.687492 L193.824829,343.409033 M220.779192,368.687492 L195.104545,343.409033 M179.118684,381.551717 L211.63144,381.640091"></path>
            </g>
        </g>
    </g>
</svg>