<?xml version="1.0" encoding="UTF-8"?>
<svg width="77px" height="78px" viewBox="0 0 77 78" version="1.1" xmlns="http://www.w3.org/2000/svg" xmlns:xlink="http://www.w3.org/1999/xlink">
    <!-- Generator: Sketch 59.1 (86144) - https://sketch.com -->
    <title>scalable</title>
    <desc>Created with Sketch.</desc>
    <defs>
        <path d="M33.2659933,87.2727273 C41.8942803,87.2727273 48.8888889,80.2781187 48.8888889,71.6498316 L48.8888889,71.6498316 L48.8888889,54.4107744 C48.8888889,45.7824874 41.8942803,38.7878788 33.2659933,38.7878788 L33.2659933,38.7878788 L15.6228956,38.7878788 C8.7389394,38.7878788 2.89488801,43.2402406 0.813321816,49.422384 L0.814814815,69.3714927 C0.814814815,79.2580716 8.82947053,87.2727273 18.7160494,87.2727273 L18.7160494,87.2727273 L15.6228956,87.2727273 C6.99460862,87.2727273 1.05666041e-15,80.2781187 0,71.6498316 L0,54.4107744 C-2.13618911e-16,52.6664436 0.285872212,50.9888819 0.813321816,49.422384 L0.814814815,17.9012346 C0.814814815,8.01465571 8.82947053,1.81613507e-15 18.7160494,0 L70.9135802,0 C80.8001591,-1.81613507e-15 88.8148148,8.01465571 88.8148148,17.9012346 L88.8148148,69.3714927 C88.8148148,79.2580716 80.8001591,87.2727273 70.9135802,87.2727273 Z" id="path-1"></path>
    </defs>
    <g id="Page-1" stroke="none" stroke-width="1" fill="none" fill-rule="evenodd">
        <g id="Desktop-1920-v4" transform="translate(-550.000000, -2019.000000)">
            <g id="Scalable" transform="translate(395.000000, 1704.000000)">
                <g id="scalable" transform="translate(151.500000, 309.363636)">
                    <path d="M67.8563082,34.8031511 L57.0455981,25.8541594 C56.383173,25.2774302 55.3974776,25.0402841 54.4706905,25.2346686 C53.5439035,25.4290531 52.8217726,26.0243989 52.584286,26.7898758 C52.3467994,27.5553526 52.6313045,28.3705805 53.3274916,28.9194754 L59.7179931,34.2013785 L38.537011,34.1134906 C37.0801918,34.1074457 35.9032564,35.0786048 35.9082366,36.2826351 C35.9132484,37.4866655 37.0982838,38.4676253 38.5551031,38.4736701 L59.6771764,38.5613136 L53.3890629,43.758151 C52.4067148,44.6114285 52.4334618,45.9622332 53.4493421,46.8024368 C54.4652225,47.6426404 56.0996111,47.6657101 57.1327362,46.8544287 L67.8695518,37.9948458 C68.3643589,37.589 68.6402163,37.0349006 68.6355141,36.4562998 C68.6371601,36.4383028 68.637085,36.4202145 68.6352897,36.4022033 C68.6366948,36.3842003 68.6366948,36.3661226 68.6350652,36.3481068 C68.6324319,35.7699295 68.3523569,35.2142961 67.8563082,34.8031511 Z" id="Path" stroke="#404A64" stroke-width="0.976430976" fill="#404A64" transform="translate(52.272466, 36.307983) rotate(-45.000000) translate(-52.272466, -36.307983) "></path>
                    <rect id="Rectangle-small" stroke="#404A64" stroke-width="6.50953984" x="7.60942761" y="46.3075196" width="33.6700337" height="33.4455668" rx="3.90572391"></rect>
                    <mask id="mask-2" fill="white">
                        <use xlink:href="#path-1"></use>
                    </mask>
                    <g id="Combined-Shape"></g>
                    <rect id="Rectangle-big" stroke="#404A64" stroke-width="6.50953984" mask="url(#mask-2)" x="7.33333333" y="9.15824916" width="69.5308642" height="68.956229" rx="3.90572391"></rect>
                    <path d="M29.5850604,44.2585475 C33.4132689,44.2585475 39.5864198,45.4882155 44.8978946,39.6506741 C49.3435562,35.1609512 51.1887551,41.326606 49.6018519,42.6262626 C41.7592593,50 43.4907407,53.0548086 43.4907407,56.5993266 C43.4907407,58.9623386 41.7369613,56.8966894 38.2294023,50.4023788 L31.3139288,48.275668 C27.6092108,45.5975877 27.0329213,44.2585475 29.5850604,44.2585475 Z" id="Path-12" fill="#404A64"></path>
                </g>
            </g>
        </g>
    </g>
</svg>