<?xml version="1.0" encoding="UTF-8"?>
<svg width="87px" height="94px" viewBox="0 0 87 94" version="1.1" xmlns="http://www.w3.org/2000/svg" xmlns:xlink="http://www.w3.org/1999/xlink">
    <!-- Generator: Sketch 60 (88103) - https://sketch.com -->
    <title>secure</title>
    <desc>Created with Sketch.</desc>
    <g id="Page-1" stroke="none" stroke-width="1" fill="none" fill-rule="evenodd">
        <g id="Desktop-1920-v4" transform="translate(-963.000000, -2010.000000)" stroke="#404A64">
            <g id="Secure" transform="translate(811.000000, 1704.000000)">
                <g id="secure" transform="translate(154.545455, 309.363636)">
                    <path d="M38.0826446,86.4559716 C20.0330579,79.3154758 0.396694215,54.9187816 0,24.1749799 C0,21.0014262 2.38613873,16.3401972 5.85123967,14.5551452 C9.12396694,12.8691948 35.0590296,2.05004163 37.6859504,0.968368333 C41.0578512,-0.42006142 42.2479339,-0.221714312 44.4297521,0.968368333 C46.6115702,2.15845098 73.785124,12.8691948 76.7603306,14.4559716 C79.7355372,16.0427485 81.9173554,18.4229138 81.9173554,21.9931617 C81.9173554,59.8774592 59.3057851,80.3072113 44.8264463,86.4559716 C42.6446281,87.6460543 40.4628099,87.2493601 38.0826446,86.4559716 Z" id="Path-12" stroke-width="5.03305785"></path>
                    <path d="M57.322314,40.8453921 C57.3203469,38.2311415 55.5391308,35.956934 53.0095867,35.3390208 L53.0095867,29.6057952 C52.8736405,22.9650186 47.4738835,17.6528926 40.8595041,17.6528926 C34.2451248,17.6528926 28.8453678,22.9650186 28.7094216,29.6057952 L28.7094216,35.3390208 C26.1798775,35.956934 24.3986614,38.2311415 24.3966942,40.8453921 L24.3966942,57.2046768 C24.3966942,60.3368804 26.9252195,62.8760331 30.0443134,62.8760331 L51.6746949,62.8760331 C53.1725366,62.8760331 54.6090306,62.2785169 55.6681647,61.2149313 C56.7272987,60.1513457 57.322314,58.708814 57.322314,57.2046768 L57.322314,40.8453921 Z M40.9586777,20.231405 C45.9405999,20.237164 49.9778418,24.3674843 49.9834711,29.4642643 L49.9834711,35.107438 L31.9338843,35.107438 L31.9338843,29.4642643 C31.9395136,24.3674843 35.9767555,20.237164 40.9586777,20.231405 Z M54.3471074,57.1120366 C54.3471074,58.5426986 53.197471,59.7024793 51.7793227,59.7024793 L30.1380327,59.7024793 C28.7198843,59.7024793 27.5702479,58.5426986 27.5702479,57.1120366 L27.5702479,40.6730873 C27.5702479,39.2424253 28.7198843,38.0826446 30.1380327,38.0826446 L51.7793227,38.0826446 C53.197471,38.0826446 54.3471074,39.2424253 54.3471074,40.6730873 L54.3471074,57.1120366 Z" id="Shape" stroke-width="1.31818182" fill="#404A64" fill-rule="nonzero"></path>
                </g>
            </g>
        </g>
    </g>
</svg>