<svg xmlns="http://www.w3.org/2000/svg" xmlns:xlink="http://www.w3.org/1999/xlink" width="399.5" height="113" viewBox="0 0 399.5 113">
  <defs>
    <clipPath id="clip-path">
      <rect id="MASK" width="65.733" height="15.75" transform="translate(2.267 68.25)" fill="none"/>
    </clipPath>
  </defs>
  <g id="fantom_logo" data-name="fantom logo" transform="translate(0 17)">
    <g id="fantom_new_logo" data-name="fantom new logo" transform="translate(9 3)">
      <g id="rounded_copy" data-name="rounded copy">
        <path id="Rectangle" d="M27.673.619l20.84,11.01c1.563.826,1.563,2.165,0,2.99l-20.84,11.01a6.776,6.776,0,0,1-5.66,0L1.172,14.62c-1.563-.826-1.563-2.165,0-2.99L22.013.619A6.776,6.776,0,0,1,27.673.619Z" transform="translate(9.365)" fill="none" stroke="#426ed5" stroke-miterlimit="10" stroke-width="5"/>
        <path id="Rectangle_Copy" data-name="Rectangle Copy" d="M27.673.619l20.84,11.01c1.563.826,1.563,2.165,0,2.99l-20.84,11.01a6.776,6.776,0,0,1-5.66,0L1.172,14.62c-1.563-.826-1.563-2.165,0-2.99L22.013.619A6.776,6.776,0,0,1,27.673.619Z" transform="translate(9.365 26.868)" fill="none" stroke="#426ed5" stroke-miterlimit="10" stroke-width="5"/>
        <rect id="MASK-2" data-name="MASK" width="65.733" height="15.75" transform="translate(2.267 68.25)" fill="none"/>
        <g id="rounded_copy-2" data-name="rounded copy" clip-path="url(#clip-path)">
          <path id="Rectangle_Copy_2" data-name="Rectangle Copy 2" d="M27.673.619l20.84,11.01c1.563.826,1.563,2.165,0,2.99l-20.84,11.01a6.776,6.776,0,0,1-5.66,0L1.172,14.62c-1.563-.826-1.563-2.165,0-2.99L22.013.619A6.776,6.776,0,0,1,27.673.619Z" transform="translate(9.365 54.971)" fill="none" stroke="#426ed5" stroke-miterlimit="10" stroke-width="5"/>
        </g>
        <path id="Path_11" data-name="Path 11" d="M0,0C4.08,2.471,6.086,3.4,6.086,9.574" transform="translate(61.525 3.597)" fill="none" stroke="#426ed5" stroke-miterlimit="10" stroke-width="5"/>
        <path id="Path_11_Copy" data-name="Path 11 Copy" d="M0,0C4.08,2.471,6.086,3.4,6.086,9.574" transform="translate(6.496 76.697) rotate(-180)" fill="none" stroke="#426ed5" stroke-miterlimit="10" stroke-width="5"/>
        <path id="Line_2" data-name="Line 2" d="M.154,54.507V.134" transform="translate(9.056 13.279)" fill="none" stroke="#426ed5" stroke-linecap="square" stroke-miterlimit="10" stroke-width="5"/>
        <path id="Line_2_Copy" data-name="Line 2 Copy" d="M.154,54.507V.134" transform="translate(59.05 13.279)" fill="none" stroke="#426ed5" stroke-linecap="square" stroke-miterlimit="10" stroke-width="5"/>
        <path id="Line_2_Copy_2" data-name="Line 2 Copy 2" d="M.309,25.324V0" transform="translate(33.899 27.022)" fill="none" stroke="#426ed5" stroke-linecap="square" stroke-miterlimit="10" stroke-width="5"/>
      </g>
    </g>
    <text id="fantom" transform="translate(246.5 73)" fill="#426ed5" font-size="90" font-family="Muli-SemiBold, Muli" font-weight="600"><tspan x="-152.1" y="0">fantom</tspan></text>
  </g>
</svg>
